<?xml version="1.0" encoding="iso-8859-1"?>
<!-- Generator: Adobe Illustrator 19.0.0, SVG Export Plug-In . SVG Version: 6.00 Build 0)  -->
<svg version="1.1" id="Layer_1" xmlns="http://www.w3.org/2000/svg" xmlns:xlink="http://www.w3.org/1999/xlink" x="0px" y="0px"
	 viewBox="0 0 476.127 476.127" style="enable-background:new 0 0 476.127 476.127;" xml:space="preserve">
<g>
	<rect x="85.763" y="408.668" style="fill:#D1E7F8;" width="40" height="64.77"/>
	<path style="fill:#D1E7F8;" d="M105.763,331.646c-6.837,0-13.521-0.66-20-1.905v42.004h40v-40.099H105.763z"/>
	<rect x="173.963" y="331.646" style="fill:#D1E7F8;" width="40" height="141.792"/>
	<rect x="262.164" y="428.668" style="fill:#BDDBFF;" width="40" height="44.77"/>
	<rect x="262.164" y="331.646" style="fill:#BDDBFF;" width="40" height="60.099"/>
	<path style="fill:#BDDBFF;" d="M238.063,2.689c-12.659,0-24.991,1.55-36.81,4.467C145.791,20.849,101.695,64.8,88.72,121.493
		C38.476,129.668,0,173.367,0,225.883c0,58.318,47.445,105.763,105.763,105.763h132.3V2.689z"/>
	<path style="fill:#BDDBFF;" d="M370.364,331.646h-20v141.792h40V329.741C383.885,330.987,377.2,331.646,370.364,331.646z"/>
	<path style="fill:#9BC9FF;" d="M387.407,121.493C371.667,52.72,310.135,2.689,238.063,2.689v328.958h132.3
		c58.318,0,105.763-47.445,105.763-105.763c0-20.127-5.657-38.956-15.457-54.99C444.9,145.092,418.394,126.535,387.407,121.493z"/>
</g>
<g>
</g>
<g>
</g>
<g>
</g>
<g>
</g>
<g>
</g>
<g>
</g>
<g>
</g>
<g>
</g>
<g>
</g>
<g>
</g>
<g>
</g>
<g>
</g>
<g>
</g>
<g>
</g>
<g>
</g>
</svg>
